# xmcd CD database file
#
# Track frame offsets:
#	150
#	17372
#	35068
#	47018
#	65617
#	85758
#	103503
#	120744
#	132682
#	149957
#	162904
#	176989
#	193674
#	206858
#	218671
#	232237
#	247882
#	270566
#	288556
#	305002
#
# Disc length: 4155 seconds
#
# Revision: 5
# Processed by: cddbd v1.5.1PL2 Copyright (c) Steve Scherf et al.
# Submitted via: CDex 1.51
#
DISCID=3d103914
DTITLE=The Everly Brothers - The Reunion Concert
DYEAR=1983
DGENRE=Blues
TTITLE0=The Price Of Love
TTITLE1=Walk Rght Back
TTITLE2=Claudette
TTITLE3=Crying In The Rain
TTITLE4=Love Is Strange
TTITLE5=When Will I Be Loved
TTITLE6=So Sad
TTITLE7=Bird Dog
TTITLE8=Be-Bop-A-Lula
TTITLE9=Bye Bye Love
TTITLE10=Gone Gone Gone
TTITLE11=All I Have To Do Is Dream
TTITLE12=Wake Up Little Susie
TTITLE13=Cathy's Clown
TTITLE14=I Kissed You
TTITLE15=Temptation
TTITLE16=Lucille
TTITLE17=Let It Be Me
TTITLE18=Good Golly Miss Molly
TTITLE19=The Price Of Love
EXTD=YEAR: 1983
EXTT0=
EXTT1=
EXTT2=
EXTT3=
EXTT4=
EXTT5=
EXTT6=
EXTT7=
EXTT8=
EXTT9=
EXTT10=
EXTT11=
EXTT12=
EXTT13=
EXTT14=
EXTT15=
EXTT16=
EXTT17=
EXTT18=
EXTT19=
PLAYORDER=
